<svg xmlns="http://www.w3.org/2000/svg" viewBox="0 0 1200 208" width="1200" height="208" role="img" aria-labelledby="st sd">
  <title id="st">GitHub statistics</title>
  <desc id="sd">Total Stars: 17. Commits: 399. Repositories: 21. Languages: 5.</desc>

  <defs>
    <linearGradient id="s-bg" x1="0" y1="0" x2="1" y2="1">
      <stop offset="0" stop-color="#0D0C0B"/>
      <stop offset=".55" stop-color="#16120F"/>
      <stop offset="1" stop-color="#1C1713"/>
    </linearGradient>
    <clipPath id="s-clip"><rect width="1200" height="208" rx="16"/></clipPath>
  </defs>
  <g clip-path="url(#s-clip)">
    <rect width="1200" height="208" fill="url(#s-bg)"/>
    <rect width="1200" height="1" fill="#F3EADA" fill-opacity=".06"/>
  </g>
  <rect x=".5" y=".5" width="1199" height="207" rx="16" fill="none" stroke="#E58A3C" stroke-opacity=".35"/>

  <style>
    .rise { animation: rise .7s cubic-bezier(.2,.7,.3,1) backwards; }
    @keyframes rise { from { opacity: 0; transform: translateY(9px); } }
    @media (prefers-reduced-motion: reduce) { .rise { animation: none; } }
  </style>

  <text x="56" y="60" font-family="Impact, Haettenschweiler, 'Franklin Gothic Bold', 'Arial Black', sans-serif" font-size="28" letter-spacing="1.5" fill="#E58A3C">GITHUB STATS</text>
  <line x1="288" y1="52" x2="1144" y2="52" stroke="#E58A3C" stroke-opacity=".45" stroke-width="1.5" stroke-dasharray="7 6"/>

    <g class="rise" style="animation-delay:0.10s">
      <g transform="translate(56, 121) scale(1.5)" fill="none" stroke="#E58A3C" stroke-opacity="1" stroke-width="1.7" stroke-linecap="round" stroke-linejoin="round">
        <path d="M12 2.6l2.9 5.9 6.5.9-4.7 4.6 1.1 6.5-5.8-3-5.8 3 1.1-6.5-4.7-4.6 6.5-.9z" fill="#E58A3C" fill-opacity=".9"/>
      </g>
      <text x="110" y="128" font-family="'Segoe UI', -apple-system, 'Helvetica Neue', Inter, Arial, sans-serif" font-size="15" fill="#9C8C7A">Total Stars</text>
      <text x="110" y="164" font-family="Impact, Haettenschweiler, 'Franklin Gothic Bold', 'Arial Black', sans-serif" font-size="34" letter-spacing="1" fill="#F3EADA">17</text>
    </g>
    <line x1="314" y1="104" x2="314" y2="168" stroke="#F3EADA" stroke-opacity=".09"/>
    <g class="rise" style="animation-delay:0.19s">
      <g transform="translate(328, 121) scale(1.5)" fill="none" stroke="#F3EADA" stroke-opacity="0.85" stroke-width="1.7" stroke-linecap="round" stroke-linejoin="round">
        <path d="M2 12h6.4M15.6 12H22M15.6 12a3.6 3.6 0 1 1-7.2 0 3.6 3.6 0 1 1 7.2 0"/>
      </g>
      <text x="382" y="128" font-family="'Segoe UI', -apple-system, 'Helvetica Neue', Inter, Arial, sans-serif" font-size="15" fill="#9C8C7A">Commits</text>
      <text x="382" y="164" font-family="Impact, Haettenschweiler, 'Franklin Gothic Bold', 'Arial Black', sans-serif" font-size="34" letter-spacing="1" fill="#F3EADA">399</text>
    </g>
    <line x1="586" y1="104" x2="586" y2="168" stroke="#F3EADA" stroke-opacity=".09"/>
    <g class="rise" style="animation-delay:0.28s">
      <g transform="translate(600, 121) scale(1.5)" fill="none" stroke="#F3EADA" stroke-opacity="0.85" stroke-width="1.7" stroke-linecap="round" stroke-linejoin="round">
        <path d="M5 3.5h11.5a1.5 1.5 0 0 1 1.5 1.5v14a1.5 1.5 0 0 1-1.5 1.5H5a1.5 1.5 0 0 1-1.5-1.5V5A1.5 1.5 0 0 1 5 3.5zM3.5 16.5H18"/>
      </g>
      <text x="654" y="128" font-family="'Segoe UI', -apple-system, 'Helvetica Neue', Inter, Arial, sans-serif" font-size="15" fill="#9C8C7A">Repositories</text>
      <text x="654" y="164" font-family="Impact, Haettenschweiler, 'Franklin Gothic Bold', 'Arial Black', sans-serif" font-size="34" letter-spacing="1" fill="#F3EADA">21</text>
    </g>
    <line x1="858" y1="104" x2="858" y2="168" stroke="#F3EADA" stroke-opacity=".09"/>
    <g class="rise" style="animation-delay:0.37s">
      <g transform="translate(872, 121) scale(1.5)" fill="none" stroke="#F3EADA" stroke-opacity="0.85" stroke-width="1.7" stroke-linecap="round" stroke-linejoin="round">
        <path d="M9 7.5L4.5 12 9 16.5M15 7.5L19.5 12 15 16.5M13 4.5l-2 15"/>
      </g>
      <text x="926" y="128" font-family="'Segoe UI', -apple-system, 'Helvetica Neue', Inter, Arial, sans-serif" font-size="15" fill="#9C8C7A">Languages</text>
      <text x="926" y="164" font-family="Impact, Haettenschweiler, 'Franklin Gothic Bold', 'Arial Black', sans-serif" font-size="34" letter-spacing="1" fill="#F3EADA">5</text>
    </g>
</svg>
